<svg xmlns="http://www.w3.org/2000/svg" width="28" height="28" viewBox="0 0 28 28">
    <g fill="none" fill-rule="evenodd">
        <path fill="#FFF" d="M14 0c-3.802 0-4.28.015-5.772.084-1.49.069-2.508.305-3.4.651a6.858 6.858 0 0 0-2.477 1.614A6.853 6.853 0 0 0 .735 4.83C.389 5.719.153 6.737.084 8.228.015 9.72 0 10.198 0 14c0 3.802.015 4.278.084 5.772.069 1.491.305 2.508.651 3.398a6.853 6.853 0 0 0 1.616 2.48 6.876 6.876 0 0 0 2.478 1.615c.891.346 1.91.582 3.399.651C9.72 27.983 10.198 28 14 28c3.802 0 4.28-.017 5.772-.084 1.49-.069 2.508-.305 3.4-.651a6.876 6.876 0 0 0 2.477-1.614 6.835 6.835 0 0 0 1.616-2.481c.347-.89.584-1.907.65-3.398.068-1.494.085-1.97.085-5.772 0-3.802-.017-4.28-.085-5.772-.066-1.491-.303-2.509-.65-3.398a6.835 6.835 0 0 0-1.616-2.48A6.858 6.858 0 0 0 23.171.734c-.891-.346-1.91-.582-3.399-.651C18.28.015 17.802 0 14 0"/>
        <path fill="#0B132B" d="M14.49 22.71a1.199 1.199 0 0 1-1.199-1.198v-7.85h-2.426a1.198 1.198 0 1 1 0-2.397h2.426v-1.079a4.86 4.86 0 0 1 4.856-4.853 1.198 1.198 0 0 1 0 2.398 2.46 2.46 0 0 0-2.459 2.455v1.08h2.487a1.198 1.198 0 1 1 0 2.396h-2.487v7.85c0 .662-.535 1.198-1.198 1.198"/>
    </g>
</svg>
