<svg xmlns="http://www.w3.org/2000/svg" width="28" height="28" viewBox="0 0 28 28">
    <g fill="none" fill-rule="evenodd">
        <path fill="#FFF" d="M14 0c-3.802 0-4.28.015-5.772.084-1.49.069-2.508.305-3.4.651a6.876 6.876 0 0 0-2.477 1.614A6.835 6.835 0 0 0 .735 4.83c-.347.89-.584 1.907-.65 3.398C.017 9.722 0 10.198 0 14c0 3.802.017 4.28.085 5.772.066 1.491.303 2.509.65 3.398a6.835 6.835 0 0 0 1.616 2.48 6.858 6.858 0 0 0 2.478 1.615c.891.346 1.91.582 3.399.651C9.72 27.985 10.198 28 14 28c3.802 0 4.28-.015 5.772-.084 1.49-.069 2.508-.305 3.4-.651a6.858 6.858 0 0 0 2.477-1.614 6.835 6.835 0 0 0 1.616-2.481c.347-.889.584-1.907.65-3.398.068-1.492.085-1.97.085-5.772 0-3.802-.017-4.278-.085-5.772-.066-1.491-.303-2.508-.65-3.398a6.835 6.835 0 0 0-1.616-2.48A6.876 6.876 0 0 0 23.171.734c-.891-.346-1.91-.582-3.399-.651C18.28.015 17.802 0 14 0"/>
        <path fill="#0B132B" d="M14 18.334a4.333 4.333 0 1 1 0-8.667 4.333 4.333 0 0 1 0 8.667m0-11.01a6.677 6.677 0 1 0 .002 13.353A6.677 6.677 0 0 0 14 7.324M22.5 7.06a1.56 1.56 0 1 1-3.12.002 1.56 1.56 0 0 1 3.12-.001"/>
    </g>
</svg>
