<svg xmlns="http://www.w3.org/2000/svg" width="28" height="28" viewBox="0 0 28 28">
    <path fill="#FFF" fill-rule="evenodd" d="M14.268 11.525c.601-.306 1.318-.466 2.146-.466 2.845 0 4.399 1.844 4.38 4.962v3.712a1.25 1.25 0 1 1-2.5 0v-3.72c.01-1.822-.522-2.454-1.88-2.454-1.344 0-1.892.679-1.881 2.624 0 .1-.011.198-.033.292v3.275a1.25 1.25 0 0 1-2.5 0v-7.5a1.25 1.25 0 0 1 2.268-.725zM9.25 11c.69 0 1.25.56 1.25 1.25v7.5a1.25 1.25 0 0 1-2.5 0v-7.5c0-.69.56-1.25 1.25-1.25zm0-4a1.25 1.25 0 1 1 0 2.5 1.25 1.25 0 0 1 0-2.5zM14 0c-3.802 0-4.28.015-5.772.084-1.49.069-2.508.305-3.4.651a6.876 6.876 0 0 0-2.477 1.614A6.835 6.835 0 0 0 .735 4.83c-.347.89-.584 1.907-.65 3.398C.017 9.722 0 10.198 0 14c0 3.802.017 4.28.085 5.772.066 1.491.303 2.509.65 3.398a6.835 6.835 0 0 0 1.616 2.48 6.858 6.858 0 0 0 2.478 1.615c.891.346 1.91.582 3.399.651C9.72 27.985 10.198 28 14 28c3.802 0 4.28-.015 5.772-.084 1.49-.069 2.508-.305 3.4-.651a6.858 6.858 0 0 0 2.477-1.614 6.835 6.835 0 0 0 1.616-2.481c.347-.889.584-1.907.65-3.398.068-1.492.085-1.97.085-5.772 0-3.802-.017-4.278-.085-5.772-.066-1.491-.303-2.508-.65-3.398a6.835 6.835 0 0 0-1.616-2.48A6.876 6.876 0 0 0 23.171.734c-.891-.346-1.91-.582-3.399-.651C18.28.015 17.802 0 14 0"/>
</svg>
