<?xml version="1.0" encoding="UTF-8"?>
<svg width="80px" height="41px" viewBox="0 0 80 41" version="1.1" xmlns="http://www.w3.org/2000/svg" xmlns:xlink="http://www.w3.org/1999/xlink">
    <!-- Generator: Sketch 49.3 (51167) - http://www.bohemiancoding.com/sketch -->
    <title>BW black Copy 2</title>
    <desc>Created with Sketch.</desc>
    <defs>
        <polygon id="path-1" points="5.15183741e-05 0.11328781 31.8002831 0.11328781 31.8002831 40.0318127 5.15183741e-05 40.0318127"></polygon>
    </defs>
    <g id="web2" stroke="none" stroke-width="1" fill="none" fill-rule="evenodd">
        <g id="start2" transform="translate(-100.000000, -36.000000)">
            <g id="BW-black-Copy-2" transform="translate(100.000000, 36.000000)">
                <g id="Page-1">
                    <path d="M79.7292175,0.436346759 C79.5829054,0.254538692 79.3618915,0.148872466 79.1290285,0.148872466 L70.8979378,0.148872466 C70.531127,0.148872466 70.214289,0.408894259 70.1411329,0.770438504 L65.613183,23.0976086 L59.4330389,0.717605391 C59.3397906,0.381441759 59.035317,0.148872466 58.6880832,0.148872466 L51.2751043,0.148872466 C50.9278705,0.148872466 50.6233969,0.381441759 50.5301486,0.717605391 L44.3500045,23.0976086 L39.8215394,0.770438504 C39.7571414,0.45188591 39.5016103,0.207403268 39.1821964,0.157677985 C38.8632976,0.108988645 38.5464596,0.264380155 38.3888134,0.548228646 L32.4214402,11.3479386 C32.3307678,11.5121356 32.3019175,11.7043031 32.3415867,11.8876651 L38.2002562,39.4510111 C38.2759882,39.8094475 38.5907654,40.0658435 38.9555155,40.0658435 L47.4591384,40.0658435 C47.8043115,40.0658435 48.1077547,39.8353461 48.2025485,39.5017723 L54.9818514,15.6212051 L61.760639,39.5017723 C61.8554328,39.8353461 62.158876,40.0658435 62.503534,40.0658435 L71.0617663,40.0658435 C71.4270315,40.0658435 71.742324,39.8089295 71.818056,39.4494571 L79.8853182,1.08640124 C79.9332303,0.856939778 79.8760449,0.618672797 79.7292175,0.436346759" id="Fill-1" fill="#0B132B"></path>
                    <g id="Group-5" transform="translate(0.000000, 0.034911)">
                        <mask id="mask-2" fill="white">
                            <use xlink:href="#path-1"></use>
                        </mask>
                        <g id="Clip-4"></g>
                        <path d="M22.0859785,27.4831196 C22.0859785,28.6635771 21.6810441,29.6259685 20.8485071,30.4262348 C20.0051514,31.2353065 18.9655106,31.628965 17.6698235,31.628965 L9.74114569,31.628965 L9.74114569,23.3108575 L17.6698235,23.3108575 C18.963965,23.3108575 20.0030906,23.7076238 20.8459312,24.5244652 C21.6805289,25.333537 22.0859785,26.3016261 22.0859785,27.4831196 M19.2390731,14.2934882 C18.6012757,14.9046948 17.7311303,15.2020106 16.5791795,15.2020106 L9.74114569,15.2020106 L9.74114569,8.5160319 L16.5791795,8.5160319 C17.7311303,8.5160319 18.6012757,8.81334765 19.238558,9.42455426 C19.8650214,10.0259194 20.1700102,10.8225599 20.1700102,11.8590212 C20.1700102,12.8954826 19.8650214,13.6921231 19.2390731,14.2934882 M29.4242557,21.4834534 C28.8384918,20.8188957 28.1512367,20.1994015 27.381037,19.642064 C26.8648229,19.2691244 26.5103765,19.0287855 26.259482,18.8692502 C26.4336141,18.7159306 26.6216562,18.5377483 26.8241234,18.3341854 C27.2852128,17.8711187 27.75403,17.3142992 28.2171802,16.6803018 C28.710211,16.0069386 29.1161758,15.1600549 29.4242557,14.1629594 C29.7297597,13.1741514 29.88483,12.119561 29.88483,11.0297486 C29.88483,8.1187476 28.6566319,5.5382126 26.2347532,3.36065958 C23.837088,1.20589731 20.7763814,0.112977027 17.1376387,0.112977027 L0.77282713,0.112977027 C0.346254992,0.112977027 5.15183741e-05,0.461054009 5.15183741e-05,0.889934575 L5.15183741e-05,39.2550624 C5.15183741e-05,39.6839429 0.346254992,40.0320199 0.77282713,40.0320199 L18.0690909,40.0320199 C22.0282779,40.0320199 25.3357575,38.8479366 27.9008574,36.5134382 C30.4886253,34.1587388 31.8002831,31.300571 31.8002831,28.0181843 C31.8002831,26.6890689 31.5519646,25.4215922 31.0615096,24.2514941 C30.5777521,23.0990071 30.0270207,22.167694 29.4242557,21.4834534" id="Fill-3" fill="#0B132B" mask="url(#mask-2)"></path>
                    </g>
                </g>
            </g>
        </g>
    </g>
</svg>