<svg xmlns="http://www.w3.org/2000/svg" xmlns:xlink="http://www.w3.org/1999/xlink" width="114" height="108" viewBox="0 0 114 108">
    <defs>
        <path id="a" d="M0 .183h113.963V58.66H0z"/>
    </defs>
    <g fill="none" fill-rule="evenodd">
        <path fill="#D4CCE4" d="M103.423 103.485c-.554 0-1.115-.12-1.649-.37L16.963 63.093a3.829 3.829 0 0 1-1.832-5.111 3.863 3.863 0 0 1 5.134-1.824l84.812 40.02a3.83 3.83 0 0 1 1.832 5.111 3.857 3.857 0 0 1-3.486 2.195"/>
        <path fill="#D4CCE4" d="M7.6 106.225a3.855 3.855 0 0 1-2.727-1.123 3.825 3.825 0 0 1 0-5.428L54.99 49.786a3.869 3.869 0 0 1 5.452 0 3.825 3.825 0 0 1 0 5.427l-50.116 49.889a3.855 3.855 0 0 1-2.726 1.123M48.353 105.129a1.65 1.65 0 0 1-1.134-.449 1.64 1.64 0 0 1-.067-2.325l46.812-49.34a1.658 1.658 0 0 1 2.335-.066 1.64 1.64 0 0 1 .067 2.325l-46.812 49.34a1.65 1.65 0 0 1-1.201.515"/>
        <path fill="#D4CCE4" d="M97.592 51.037H16.37L1.65 106.225h110.66L97.59 51.037zm-5.083 6.58l11.209 42.03H10.244l11.21-42.03h71.055z"/>
        <g transform="translate(0 49.21)">
            <mask id="b" fill="#fff">
                <use xlink:href="#a"/>
            </mask>
            <path fill="#48247D" d="M3.8 55.37h106.362L96.321 3.473H17.64L3.802 55.37zm108.51 3.29H1.652c-.513 0-.997-.237-1.31-.642a1.637 1.637 0 0 1-.287-1.425L14.774 1.405A1.65 1.65 0 0 1 16.371.183h81.221a1.65 1.65 0 0 1 1.597 1.222l14.718 55.188c.132.494.026 1.02-.287 1.425a1.654 1.654 0 0 1-1.31.642z" mask="url(#b)"/>
        </g>
        <path fill="#C2E2D6" d="M37.38 9.588c5.435-5.296 11.968-7.943 19.601-7.943 7.633 0 14.166 2.647 19.602 7.943 5.435 5.295 8.153 11.684 8.153 19.167 0 5.986-2.313 13.181-6.939 21.585-4.626 8.404-9.251 15.311-13.878 20.722l-6.938 7.943c-.81-.807-1.821-1.929-3.036-3.368-1.214-1.439-3.41-4.23-6.591-8.375-3.18-4.144-5.985-8.173-8.413-12.087-2.429-3.914-4.655-8.346-6.679-13.296-2.024-4.95-3.035-9.325-3.035-13.124 0-7.483 2.717-13.872 8.152-19.167"/>
        <path fill="#48247D" d="M38.535 10.763c-5.152 5.02-7.656 10.906-7.656 17.992 0 3.568.98 7.775 2.913 12.504 1.98 4.843 4.185 9.234 6.555 13.052 2.386 3.847 5.186 7.869 8.32 11.953 3.145 4.098 5.346 6.896 6.544 8.316a76.346 76.346 0 0 0 1.72 1.976l5.742-6.574c4.52-5.286 9.124-12.165 13.675-20.432 4.47-8.12 6.736-15.117 6.736-20.795 0-7.086-2.505-12.972-7.657-17.992-5.162-5.03-11.196-7.474-18.446-7.474-7.25 0-13.284 2.445-18.446 7.474M56.981 80.65c-.438 0-.858-.173-1.168-.482-.843-.84-1.896-2.008-3.132-3.473-1.23-1.458-3.465-4.295-6.64-8.434-3.2-4.17-6.062-8.283-8.506-12.222-2.465-3.973-4.754-8.529-6.803-13.54-2.096-5.124-3.157-9.749-3.157-13.744 0-7.907 2.91-14.75 8.649-20.342C41.953 2.83 48.937 0 56.98 0 65.025 0 72.01 2.83 77.74 8.412c5.739 5.592 8.65 12.436 8.65 20.343 0 6.237-2.404 13.765-7.143 22.375-4.658 8.463-9.392 15.527-14.068 20.998l-6.95 7.956c-.3.344-.731.549-1.19.565h-.057"/>
        <path fill="#48247D" d="M83.656 21.038c-.013-.045-.024-.09-.038-.135a.657.657 0 0 0-.252.135h.29zM83.8 23.765a.649.649 0 0 0-.434.171h.867a.649.649 0 0 0-.434-.17M83.314 21.09v.863a.65.65 0 0 0 .486.222c.055 0 .106-.019.158-.032-.092-.372-.195-.74-.302-1.105h-.29a.916.916 0 0 0-.052.051M83.8 26.664a.649.649 0 0 0-.434.171h.867a.649.649 0 0 0-.434-.171M84.233 23.936h-.867a.763.763 0 0 0-.052.052v.863a.65.65 0 0 0 .486.222.646.646 0 0 0 .63-.524c-.024-.156-.053-.308-.078-.463a.646.646 0 0 0-.12-.15M83.8 29.562a.649.649 0 0 0-.434.171h.867a.649.649 0 0 0-.434-.171M83.314 26.886v.863c.12.134.29.222.486.222a.655.655 0 0 0 .656-.653.645.645 0 0 0-.223-.483h-.867a.654.654 0 0 0-.052.051M83.8 32.46a.649.649 0 0 0-.434.172h.867a.649.649 0 0 0-.434-.172M83.314 29.784v.864a.65.65 0 1 0 .919-.915h-.867a.916.916 0 0 0-.052.051M83.365 35.53h.504l.036-.15c-.036-.006-.069-.021-.106-.021a.652.652 0 0 0-.434.17"/>
        <path fill="#48247D" d="M84.233 32.631h-.867a.763.763 0 0 0-.052.052v.863a.65.65 0 0 0 .486.222.649.649 0 0 0 .49-.228c.04-.232.073-.46.109-.69a.65.65 0 0 0-.166-.219M83.314 35.581v.863c.075.084.169.144.277.18.1-.368.193-.733.279-1.094h-.504a.654.654 0 0 0-.052.051M80.454 15.241h.646c-.03-.048-.057-.097-.086-.146-.043-.008-.082-.025-.126-.025a.651.651 0 0 0-.434.171M80.888 17.969a.649.649 0 0 0-.434.171h.867a.649.649 0 0 0-.433-.171M80.403 15.293v.863a.65.65 0 0 0 .485.222.65.65 0 0 0 .616-.452c-.13-.23-.268-.457-.404-.685h-.646a.654.654 0 0 0-.051.052M80.888 20.867a.649.649 0 0 0-.434.171h.867a.649.649 0 0 0-.433-.171M80.403 18.191v.863c.12.134.29.222.485.222a.655.655 0 0 0 .656-.653.643.643 0 0 0-.223-.483h-.867a.51.51 0 0 0-.051.051M80.888 23.765a.649.649 0 0 0-.434.171h.867a.649.649 0 0 0-.433-.17M83.314 21.953v-.864a.646.646 0 0 0-.172.432c0 .167.068.316.172.432M80.403 21.09v.863a.65.65 0 0 0 .485.222.655.655 0 0 0 .656-.654.644.644 0 0 0-.223-.483h-.867a.654.654 0 0 0-.051.051M80.888 26.664a.649.649 0 0 0-.434.171h.867a.649.649 0 0 0-.433-.171M83.314 24.851v-.863a.645.645 0 0 0-.172.431c0 .168.068.317.172.432M80.403 23.988v.863a.65.65 0 0 0 .485.222.655.655 0 0 0 .656-.654.644.644 0 0 0-.223-.483h-.867a.654.654 0 0 0-.051.052M80.888 29.562a.649.649 0 0 0-.434.171h.867a.649.649 0 0 0-.433-.171M83.142 27.318c0 .167.068.315.172.431v-.863a.643.643 0 0 0-.172.432M80.403 26.886v.863c.12.134.29.222.485.222a.655.655 0 0 0 .656-.653.643.643 0 0 0-.223-.483h-.867a.51.51 0 0 0-.051.051M80.888 32.46a.649.649 0 0 0-.434.172h.867a.649.649 0 0 0-.433-.172M83.142 30.216c0 .167.068.316.172.432v-.864a.643.643 0 0 0-.172.432M80.403 29.784v.864a.65.65 0 0 0 .485.222.655.655 0 0 0 .656-.654.644.644 0 0 0-.223-.483h-.867a.654.654 0 0 0-.051.051M80.454 35.53h.867a.651.651 0 0 0-.433-.171.651.651 0 0 0-.434.17M83.314 33.546v-.863a.645.645 0 0 0-.172.431c0 .168.068.316.172.432"/>
        <path fill="#48247D" d="M80.403 32.683v.863a.65.65 0 0 0 .485.222.655.655 0 0 0 .656-.654.644.644 0 0 0-.223-.483h-.867a.654.654 0 0 0-.051.052M80.888 38.257a.649.649 0 0 0-.434.171h.867a.649.649 0 0 0-.433-.171M83.314 36.444v-.863a.645.645 0 0 0-.172.432c0 .167.068.316.172.431M80.403 35.581v.863c.12.134.29.222.485.222a.655.655 0 0 0 .656-.653.643.643 0 0 0-.223-.483h-.867a.51.51 0 0 0-.051.051M80.888 41.155a.649.649 0 0 0-.434.172h.867a.649.649 0 0 0-.433-.172M80.403 38.48v.863a.65.65 0 0 0 .485.222.655.655 0 0 0 .656-.654.644.644 0 0 0-.223-.483h-.867a.654.654 0 0 0-.051.051M80.454 44.225h.396l.07-.165c-.011 0-.02-.006-.032-.006a.651.651 0 0 0-.434.17"/>
        <path fill="#48247D" d="M80.403 41.378v.863a.65.65 0 0 0 .485.222.655.655 0 0 0 .656-.654.644.644 0 0 0-.223-.483h-.867a.654.654 0 0 0-.051.052M80.403 44.276v.863c.006.008.01.018.016.025.146-.314.293-.63.43-.94h-.395a.51.51 0 0 0-.051.052M77.976 12.172a.649.649 0 0 0-.433.171h.867a.649.649 0 0 0-.434-.171M77.976 15.07a.649.649 0 0 0-.433.171h.867a.649.649 0 0 0-.434-.17M77.49 12.395v.863a.65.65 0 1 0 .92-.915h-.867a.771.771 0 0 0-.052.052M77.976 17.969a.649.649 0 0 0-.433.171h.867a.649.649 0 0 0-.434-.171M80.403 16.156v-.863a.645.645 0 0 0-.172.431c0 .168.068.316.172.432M77.49 15.293v.863a.65.65 0 1 0 .92-.915h-.867a.916.916 0 0 0-.052.052M77.976 20.867a.649.649 0 0 0-.433.171h.867a.649.649 0 0 0-.434-.171M80.231 18.623c0 .167.068.315.172.431v-.863a.643.643 0 0 0-.172.432M77.976 19.276a.655.655 0 0 0 .657-.653.644.644 0 0 0-.223-.483h-.867a.51.51 0 0 0-.052.051v.863c.12.135.29.222.485.222M77.976 23.765a.649.649 0 0 0-.433.171h.867a.649.649 0 0 0-.434-.17M80.231 21.521c0 .167.068.316.172.432v-.864a.643.643 0 0 0-.172.432M77.976 22.175a.655.655 0 0 0 .657-.654.645.645 0 0 0-.223-.483h-.867a.654.654 0 0 0-.052.051v.864a.65.65 0 0 0 .485.222M77.543 26.835h.867a.652.652 0 0 0-.434-.171.651.651 0 0 0-.433.17M80.231 24.42c0 .167.068.315.172.431v-.863a.643.643 0 0 0-.172.431M77.976 25.073a.655.655 0 0 0 .657-.654.645.645 0 0 0-.223-.483h-.867a.654.654 0 0 0-.052.052v.863a.65.65 0 0 0 .485.222M77.976 29.562a.649.649 0 0 0-.433.171h.867a.649.649 0 0 0-.434-.171M80.231 27.318c0 .167.068.315.172.431v-.863a.643.643 0 0 0-.172.432M77.976 27.971a.655.655 0 0 0 .657-.653.644.644 0 0 0-.223-.483h-.867a.51.51 0 0 0-.052.051v.863c.12.135.29.222.485.222M77.976 32.46a.649.649 0 0 0-.433.172h.867a.649.649 0 0 0-.434-.172M80.231 30.216c0 .167.068.316.172.432v-.864a.643.643 0 0 0-.172.432M77.976 30.87a.655.655 0 0 0 .657-.654.645.645 0 0 0-.223-.483h-.867a.654.654 0 0 0-.052.051v.864a.65.65 0 0 0 .485.222M77.543 35.53h.867a.652.652 0 0 0-.434-.171.651.651 0 0 0-.433.17M80.231 33.114c0 .168.068.316.172.432v-.863a.643.643 0 0 0-.172.431"/>
        <path fill="#48247D" d="M77.976 33.768a.655.655 0 0 0 .657-.654.645.645 0 0 0-.223-.483h-.867a.654.654 0 0 0-.052.052v.863a.65.65 0 0 0 .485.222M77.976 38.257a.649.649 0 0 0-.433.171h.867a.649.649 0 0 0-.434-.171M80.231 36.013c0 .167.068.315.172.431v-.863a.643.643 0 0 0-.172.432M77.49 35.581v.863c.121.134.291.222.486.222a.655.655 0 0 0 .657-.653.645.645 0 0 0-.223-.483h-.867a.654.654 0 0 0-.052.051M77.976 41.155a.649.649 0 0 0-.433.172h.867a.649.649 0 0 0-.434-.172M80.231 38.911c0 .167.068.316.172.432v-.864a.643.643 0 0 0-.172.432M77.49 38.48v.863a.65.65 0 1 0 .92-.915h-.867a.916.916 0 0 0-.052.051M77.543 44.225h.867a.652.652 0 0 0-.434-.171.651.651 0 0 0-.433.17M80.231 41.81c0 .167.068.315.172.431v-.863a.643.643 0 0 0-.172.431"/>
        <path fill="#48247D" d="M77.49 41.378v.863c.121.134.291.222.486.222a.655.655 0 0 0 .657-.654.646.646 0 0 0-.223-.483h-.867a.916.916 0 0 0-.052.052M77.976 46.952a.649.649 0 0 0-.433.171h.867a.649.649 0 0 0-.434-.171M80.403 45.14v-.864a.645.645 0 0 0-.172.432c0 .167.068.316.172.431M77.49 44.276v.863c.121.134.291.222.486.222a.655.655 0 0 0 .657-.653.645.645 0 0 0-.223-.483h-.867a.654.654 0 0 0-.052.051M77.543 50.021h.425l.084-.155c-.026-.003-.05-.016-.076-.016a.651.651 0 0 0-.433.171M77.49 47.174v.864a.65.65 0 1 0 .92-.915h-.867a.916.916 0 0 0-.052.051M77.49 50.073v.817c.103-.184.205-.365.307-.55.059-.107.114-.212.171-.319h-.425a.916.916 0 0 0-.052.052M75.065 9.274a.649.649 0 0 0-.434.171h.867a.649.649 0 0 0-.433-.171M75.065 12.172a.649.649 0 0 0-.434.171h.867a.649.649 0 0 0-.433-.171M75.065 10.581a.655.655 0 0 0 .656-.653.644.644 0 0 0-.223-.483h-.867a.51.51 0 0 0-.052.051v.863a.65.65 0 0 0 .486.222M74.63 15.241h.868a.651.651 0 0 0-.433-.17.652.652 0 0 0-.434.17M77.32 12.826c0 .167.067.316.171.432v-.863a.642.642 0 0 0-.172.431M75.065 13.48a.646.646 0 1 0 .433-1.137h-.867a.654.654 0 0 0-.052.051v.864c.12.134.29.222.486.222M74.63 18.14h.868a.651.651 0 0 0-.433-.171.652.652 0 0 0-.434.17M77.32 15.724c0 .168.067.316.171.432v-.863a.643.643 0 0 0-.172.431M75.065 16.378a.655.655 0 0 0 .656-.654.645.645 0 0 0-.223-.483h-.867a.654.654 0 0 0-.052.052v.863c.12.134.29.222.486.222M74.63 21.038h.868a.651.651 0 0 0-.433-.171.652.652 0 0 0-.434.17M77.32 18.623c0 .167.067.315.171.431v-.863a.643.643 0 0 0-.172.432M75.065 19.276a.655.655 0 0 0 .656-.653.644.644 0 0 0-.223-.483h-.867a.51.51 0 0 0-.052.051v.863a.65.65 0 0 0 .486.222M74.63 23.936h.868a.651.651 0 0 0-.433-.17.652.652 0 0 0-.434.17M77.32 21.521c0 .167.067.316.171.432v-.864a.643.643 0 0 0-.172.432M75.065 22.175a.655.655 0 0 0 .656-.654.645.645 0 0 0-.223-.483h-.867a.654.654 0 0 0-.052.051v.864c.12.134.29.222.486.222M74.63 26.835h.868a.651.651 0 0 0-.433-.171.652.652 0 0 0-.434.17M77.32 24.42c0 .167.067.315.171.431v-.863a.643.643 0 0 0-.172.431M75.065 25.073a.655.655 0 0 0 .656-.654.645.645 0 0 0-.223-.483h-.867a.654.654 0 0 0-.052.052v.863c.12.134.29.222.486.222M75.065 29.562a.649.649 0 0 0-.434.171h.867a.649.649 0 0 0-.433-.171M77.32 27.318c0 .167.067.315.171.431v-.863a.643.643 0 0 0-.172.432M75.065 27.971a.655.655 0 0 0 .656-.653.644.644 0 0 0-.223-.483h-.867a.51.51 0 0 0-.052.051v.863a.65.65 0 0 0 .486.222M74.63 32.631h.868a.651.651 0 0 0-.433-.17.652.652 0 0 0-.434.17M77.32 30.216c0 .167.067.316.171.432v-.864a.643.643 0 0 0-.172.432M75.065 30.87a.655.655 0 0 0 .656-.654.645.645 0 0 0-.223-.483h-.867a.654.654 0 0 0-.052.051v.864c.12.134.29.222.486.222M75.065 35.359a.649.649 0 0 0-.434.171h.867a.649.649 0 0 0-.433-.171M77.32 33.114c0 .168.067.316.171.432v-.863a.643.643 0 0 0-.172.431M75.065 33.768a.655.655 0 0 0 .656-.654.645.645 0 0 0-.223-.483h-.867a.654.654 0 0 0-.052.052v.863c.12.134.29.222.486.222M75.065 38.257a.649.649 0 0 0-.434.171h.867a.649.649 0 0 0-.433-.171M77.32 36.013c0 .167.067.315.171.431v-.863a.643.643 0 0 0-.172.432M75.065 36.666a.655.655 0 0 0 .656-.653.644.644 0 0 0-.223-.483h-.867a.51.51 0 0 0-.052.051v.863a.65.65 0 0 0 .486.222M75.065 41.155a.649.649 0 0 0-.434.172h.867a.649.649 0 0 0-.433-.172M77.32 38.911c0 .167.067.316.171.432v-.864a.643.643 0 0 0-.172.432M75.065 39.565a.655.655 0 0 0 .656-.654.645.645 0 0 0-.223-.483h-.867a.654.654 0 0 0-.052.051v.864c.12.134.29.222.486.222M74.63 44.225h.868a.651.651 0 0 0-.433-.171.652.652 0 0 0-.434.17"/>
        <path fill="#48247D" d="M77.32 41.81c0 .167.067.315.171.43v-.862a.643.643 0 0 0-.172.431M74.58 41.378v.863a.65.65 0 1 0 .918-.915h-.867a.916.916 0 0 0-.052.052M75.065 46.952a.649.649 0 0 0-.434.171h.867a.649.649 0 0 0-.433-.171M77.32 44.708c0 .167.067.315.171.431v-.863a.643.643 0 0 0-.172.432M74.58 44.276v.863c.12.134.29.222.485.222a.655.655 0 0 0 .656-.653.645.645 0 0 0-.223-.483h-.867a.654.654 0 0 0-.052.051M74.63 50.021h.868a.651.651 0 0 0-.433-.17.652.652 0 0 0-.434.17M77.32 47.606c0 .167.067.316.171.432v-.864a.643.643 0 0 0-.172.432M74.58 47.174v.864a.65.65 0 1 0 .918-.915h-.867a.916.916 0 0 0-.052.051M75.065 52.749a.649.649 0 0 0-.434.171h.867a.649.649 0 0 0-.433-.171M77.32 50.504a.64.64 0 0 0 .157.411l.014-.025v-.817a.643.643 0 0 0-.172.431M74.58 50.073v.863a.65.65 0 1 0 .918-.915h-.867c-.018.017-.035.033-.052.052M74.652 55.818l.015-.024c-.011.009-.026.014-.036.024h.021zM74.58 52.971v.863c.12.134.29.222.485.222a.655.655 0 0 0 .656-.653.645.645 0 0 0-.223-.483h-.867a.654.654 0 0 0-.052.051M74.58 55.87v.07l.072-.122h-.021a.916.916 0 0 0-.052.051M74.408 9.928c0 .167.067.315.171.431v-.863a.643.643 0 0 0-.171.432M74.408 12.826c0 .167.067.316.171.432v-.864a.643.643 0 0 0-.171.432M74.408 15.724c0 .168.067.316.171.432v-.863a.643.643 0 0 0-.171.431M74.408 18.623c0 .167.067.315.171.431v-.863a.643.643 0 0 0-.171.432M74.408 21.521c0 .167.067.316.171.432v-.864a.643.643 0 0 0-.171.432M74.408 24.42c0 .167.067.315.171.431v-.863a.643.643 0 0 0-.171.431M72.153 29.562a.649.649 0 0 0-.433.171h.866a.649.649 0 0 0-.433-.171M74.408 27.318c0 .167.067.315.171.431v-.863a.643.643 0 0 0-.171.432M71.72 32.631h.866a.651.651 0 0 0-.433-.17.651.651 0 0 0-.433.17M74.408 30.216c0 .167.067.316.171.432v-.864a.643.643 0 0 0-.171.432M72.153 30.87a.655.655 0 0 0 .656-.654.643.643 0 0 0-.223-.483h-.866a.51.51 0 0 0-.052.051v.864a.65.65 0 0 0 .485.222M72.153 35.359a.649.649 0 0 0-.433.171h.866a.649.649 0 0 0-.433-.171M74.408 33.114c0 .168.067.316.171.432v-.863a.643.643 0 0 0-.171.431M72.153 33.768a.655.655 0 0 0 .656-.654.643.643 0 0 0-.223-.483h-.866a.51.51 0 0 0-.052.052v.863a.65.65 0 0 0 .485.222M71.72 38.428h.866a.651.651 0 0 0-.433-.171.651.651 0 0 0-.433.17M74.408 36.013c0 .167.067.315.171.431v-.863a.643.643 0 0 0-.171.432M72.153 36.666a.655.655 0 0 0 .656-.653.642.642 0 0 0-.223-.483h-.866a.417.417 0 0 0-.052.051v.863c.12.135.29.222.485.222M72.153 41.155a.649.649 0 0 0-.433.172h.866a.649.649 0 0 0-.433-.172M74.408 38.911c0 .167.067.316.171.432v-.864a.643.643 0 0 0-.171.432M72.153 39.565a.655.655 0 0 0 .656-.654.643.643 0 0 0-.223-.483h-.866a.51.51 0 0 0-.052.051v.864a.65.65 0 0 0 .485.222M71.72 44.225h.866a.651.651 0 0 0-.433-.171.651.651 0 0 0-.433.17"/>
        <path fill="#48247D" d="M74.408 41.81c0 .167.067.315.171.431v-.863a.643.643 0 0 0-.171.431M72.153 42.463a.655.655 0 0 0 .656-.654.643.643 0 0 0-.223-.483h-.866a.51.51 0 0 0-.052.052v.863c.12.134.29.222.485.222M72.153 46.952a.649.649 0 0 0-.433.171h.866a.649.649 0 0 0-.433-.171M74.408 44.708c0 .167.067.315.171.431v-.863a.643.643 0 0 0-.171.432M72.153 45.361a.655.655 0 0 0 .656-.653.642.642 0 0 0-.223-.483h-.866a.417.417 0 0 0-.052.051v.863c.12.135.29.222.485.222M71.72 50.021h.866a.651.651 0 0 0-.433-.17.651.651 0 0 0-.433.17M74.408 47.606c0 .167.067.316.171.432v-.864a.643.643 0 0 0-.171.432M71.668 47.174v.864a.65.65 0 0 0 .485.222.655.655 0 0 0 .657-.654.644.644 0 0 0-.223-.483h-.867a.654.654 0 0 0-.052.051M72.153 52.749a.649.649 0 0 0-.433.171h.866a.649.649 0 0 0-.433-.171M74.408 50.504c0 .168.067.317.171.432v-.863a.643.643 0 0 0-.171.431M71.668 50.073v.863c.12.134.29.222.485.222a.655.655 0 0 0 .657-.654.644.644 0 0 0-.223-.483h-.867a.654.654 0 0 0-.052.052M71.72 55.818h.866a.651.651 0 0 0-.433-.171.651.651 0 0 0-.433.17M74.408 53.403c0 .167.067.315.171.431v-.863a.643.643 0 0 0-.171.432M71.668 52.971v.863c.12.134.29.222.485.222a.655.655 0 0 0 .657-.653.643.643 0 0 0-.223-.483h-.867a.51.51 0 0 0-.052.051M72.153 58.545a.649.649 0 0 0-.433.172h.866a.649.649 0 0 0-.433-.172M74.43 56.19l.15-.25v-.07a.643.643 0 0 0-.15.32M71.668 55.87v.863a.65.65 0 0 0 .485.222.655.655 0 0 0 .657-.654.644.644 0 0 0-.223-.483h-.867a.654.654 0 0 0-.052.051"/>
        <path fill="#48247D" d="M72.586 58.716h-.866a.573.573 0 0 0-.052.052v.863c.12.133.288.22.481.221.198-.307.396-.616.594-.93a.639.639 0 0 0-.157-.206M71.496 30.216c0 .167.068.316.172.432v-.864a.643.643 0 0 0-.172.432M69.241 35.359a.649.649 0 0 0-.433.171h.867a.649.649 0 0 0-.434-.171M71.496 33.114c0 .168.068.316.172.432v-.863a.643.643 0 0 0-.172.431M68.808 38.428h.867a.652.652 0 0 0-.434-.171.651.651 0 0 0-.433.17M71.496 36.013c0 .167.068.315.172.431v-.863a.643.643 0 0 0-.172.432M69.241 36.666a.655.655 0 0 0 .657-.653.644.644 0 0 0-.223-.483h-.867a.51.51 0 0 0-.052.051v.863c.12.135.29.222.485.222M69.241 41.155a.649.649 0 0 0-.433.172h.867a.649.649 0 0 0-.434-.172M71.496 38.911c0 .167.068.316.172.432v-.864a.643.643 0 0 0-.172.432M69.241 39.565a.655.655 0 0 0 .657-.654.645.645 0 0 0-.223-.483h-.867a.654.654 0 0 0-.052.051v.864a.65.65 0 0 0 .485.222M68.808 44.225h.867a.652.652 0 0 0-.434-.171.651.651 0 0 0-.433.17M71.496 41.81c0 .167.068.315.172.43v-.862a.643.643 0 0 0-.172.431"/>
        <path fill="#48247D" d="M69.241 42.463a.655.655 0 0 0 .657-.654.645.645 0 0 0-.223-.483h-.867a.654.654 0 0 0-.052.052v.863a.65.65 0 0 0 .485.222M69.241 46.952a.649.649 0 0 0-.433.171h.867a.649.649 0 0 0-.434-.171M71.496 44.708c0 .167.068.315.172.431v-.863a.643.643 0 0 0-.172.432M69.241 45.361a.655.655 0 0 0 .657-.653.644.644 0 0 0-.223-.483h-.867a.51.51 0 0 0-.052.051v.863c.12.135.29.222.485.222M68.808 50.021h.867a.652.652 0 0 0-.434-.17.651.651 0 0 0-.433.17M71.496 47.606c0 .167.068.316.172.432v-.864a.643.643 0 0 0-.172.432M69.241 48.26a.655.655 0 0 0 .657-.654.645.645 0 0 0-.223-.483h-.867a.654.654 0 0 0-.052.051v.864a.65.65 0 0 0 .485.222M69.241 52.749a.649.649 0 0 0-.433.171h.867a.649.649 0 0 0-.434-.171M71.496 50.504c0 .168.068.316.172.432v-.863a.643.643 0 0 0-.172.431M68.756 50.073v.863a.65.65 0 1 0 .92-.915h-.868c-.018.017-.035.033-.052.052M68.808 55.818h.867a.652.652 0 0 0-.434-.171.651.651 0 0 0-.433.17M71.496 53.403c0 .167.068.315.172.431v-.863a.643.643 0 0 0-.172.432M68.756 52.971v.863c.12.134.29.222.485.222a.655.655 0 0 0 .657-.653.645.645 0 0 0-.223-.483h-.867a.654.654 0 0 0-.052.051M68.808 58.716h.867a.652.652 0 0 0-.434-.17.651.651 0 0 0-.433.17M71.496 56.301c0 .167.068.316.172.432v-.864a.643.643 0 0 0-.172.432M68.756 55.87v.863a.65.65 0 1 0 .92-.915h-.868a.916.916 0 0 0-.052.051M69.241 61.444a.649.649 0 0 0-.433.171h.867a.649.649 0 0 0-.434-.171M71.668 59.63v-.862a.645.645 0 0 0-.172.431c0 .168.068.317.172.432M68.756 58.768v.863a.65.65 0 1 0 .92-.915h-.868c-.018.017-.035.033-.052.052M69.002 64.513l.103-.143a.646.646 0 0 0-.297.143h.194zM68.756 61.666v.863c.12.134.29.222.485.222a.655.655 0 0 0 .657-.653.645.645 0 0 0-.223-.483h-.867a.654.654 0 0 0-.052.051M68.756 64.564v.29l.246-.341h-.194a.916.916 0 0 0-.052.051M68.585 36.013c0 .167.067.315.171.431v-.863a.643.643 0 0 0-.171.432M66.33 41.155a.649.649 0 0 0-.434.172h.868a.649.649 0 0 0-.434-.172M68.585 38.911c0 .167.067.316.171.432v-.864a.643.643 0 0 0-.171.432M65.896 44.225h.867a.651.651 0 0 0-.433-.171.652.652 0 0 0-.434.17"/>
        <path fill="#48247D" d="M68.585 41.81c0 .167.067.315.171.431v-.863a.643.643 0 0 0-.171.431M66.33 42.463a.655.655 0 0 0 .657-.654.645.645 0 0 0-.223-.483h-.868a.654.654 0 0 0-.052.052v.863a.65.65 0 0 0 .486.222M66.33 46.952a.649.649 0 0 0-.434.171h.868a.649.649 0 0 0-.434-.171M68.585 44.708c0 .167.067.315.171.431v-.863a.643.643 0 0 0-.171.432M66.33 45.361a.655.655 0 0 0 .657-.653.644.644 0 0 0-.223-.483h-.868a.51.51 0 0 0-.052.051v.863a.65.65 0 0 0 .486.222M66.33 49.85a.649.649 0 0 0-.434.172h.868a.649.649 0 0 0-.434-.172M68.585 47.606c0 .167.067.316.171.432v-.864a.643.643 0 0 0-.171.432M66.33 48.26a.655.655 0 0 0 .657-.654.645.645 0 0 0-.223-.483h-.868a.654.654 0 0 0-.052.051v.864c.121.134.291.222.486.222M66.33 52.749a.649.649 0 0 0-.434.171h.868a.649.649 0 0 0-.434-.171M68.585 50.504c0 .168.067.317.171.432v-.863a.643.643 0 0 0-.171.431"/>
        <path fill="#48247D" d="M66.33 51.158a.655.655 0 0 0 .657-.654.645.645 0 0 0-.223-.483h-.868a.654.654 0 0 0-.052.052v.863a.65.65 0 0 0 .486.222M65.896 55.818h.867a.651.651 0 0 0-.433-.171.652.652 0 0 0-.434.17M68.585 53.403c0 .167.067.315.171.431v-.863a.643.643 0 0 0-.171.432M66.33 54.056a.655.655 0 0 0 .657-.653.644.644 0 0 0-.223-.483h-.868a.51.51 0 0 0-.052.051v.863a.65.65 0 0 0 .486.222M65.896 58.716h.867a.651.651 0 0 0-.433-.17.652.652 0 0 0-.434.17M68.585 56.301c0 .167.067.316.171.432v-.864a.643.643 0 0 0-.171.432M65.844 55.87v.863a.65.65 0 1 0 .92-.915h-.868a.916.916 0 0 0-.052.051M66.33 61.444a.649.649 0 0 0-.434.171h.868a.649.649 0 0 0-.434-.171M68.585 59.2c0 .167.067.316.171.431v-.863a.643.643 0 0 0-.171.431M65.844 58.768v.863a.65.65 0 0 0 .486.222.655.655 0 0 0 .657-.654.646.646 0 0 0-.223-.483h-.868a.916.916 0 0 0-.052.052M65.896 64.513h.867a.651.651 0 0 0-.433-.171.652.652 0 0 0-.434.17M68.585 62.098c0 .167.067.315.171.431v-.863a.643.643 0 0 0-.171.432M65.844 61.666v.863c.121.134.29.222.486.222a.655.655 0 0 0 .657-.653.645.645 0 0 0-.223-.483h-.868a.654.654 0 0 0-.052.051M66.33 67.24a.649.649 0 0 0-.434.172h.868a.649.649 0 0 0-.434-.171M68.585 64.996c0 .027.012.05.015.076l.156-.217v-.29a.643.643 0 0 0-.171.431"/>
        <path fill="#48247D" d="M65.844 64.564v.864a.65.65 0 1 0 .92-.915h-.868a.916.916 0 0 0-.052.051M66.764 67.411h-.868a.654.654 0 0 0-.052.052v.863c.055.061.121.11.195.147.26-.33.52-.664.78-1.004a.694.694 0 0 0-.055-.058M65.673 41.81c0 .167.068.315.172.43v-.862a.643.643 0 0 0-.172.431M63.418 46.952a.649.649 0 0 0-.433.171h.867a.649.649 0 0 0-.434-.171M65.673 44.708c0 .167.068.315.172.431v-.863a.643.643 0 0 0-.172.432M63.418 49.85a.649.649 0 0 0-.433.172h.867a.649.649 0 0 0-.434-.172M65.673 47.606c0 .167.068.316.172.432v-.864a.643.643 0 0 0-.172.432M63.418 48.26a.655.655 0 0 0 .657-.654.643.643 0 0 0-.223-.483h-.867a.51.51 0 0 0-.052.051v.864a.65.65 0 0 0 .485.222M63.418 52.749a.649.649 0 0 0-.433.171h.867a.649.649 0 0 0-.434-.171M65.673 50.504c0 .168.068.316.172.432v-.863a.643.643 0 0 0-.172.431"/>
        <path fill="#48247D" d="M63.418 51.158a.655.655 0 0 0 .657-.654.643.643 0 0 0-.223-.483h-.867a.458.458 0 0 0-.052.052v.863a.65.65 0 0 0 .485.222M62.985 55.818h.867a.651.651 0 0 0-.434-.171.651.651 0 0 0-.433.17M65.673 53.403c0 .167.068.315.172.431v-.863a.643.643 0 0 0-.172.432M63.418 54.056a.655.655 0 0 0 .657-.653.642.642 0 0 0-.223-.483h-.867a.417.417 0 0 0-.052.051v.863c.12.135.29.222.485.222M62.985 58.716h.867a.651.651 0 0 0-.434-.17.651.651 0 0 0-.433.17M65.673 56.301c0 .167.068.316.172.432v-.864a.643.643 0 0 0-.172.432M63.418 56.955a.655.655 0 0 0 .657-.654.643.643 0 0 0-.223-.483h-.867a.51.51 0 0 0-.052.051v.864a.65.65 0 0 0 .485.222M63.418 61.444a.649.649 0 0 0-.433.171h.867a.649.649 0 0 0-.434-.171M65.673 59.2a.64.64 0 0 0 .172.43v-.862a.643.643 0 0 0-.172.431M62.933 58.768v.863a.65.65 0 0 0 .485.222.655.655 0 0 0 .657-.654.644.644 0 0 0-.223-.483h-.867a.573.573 0 0 0-.052.052M62.985 64.513h.867a.651.651 0 0 0-.434-.171.651.651 0 0 0-.433.17M65.673 62.098c0 .167.068.315.172.431v-.863a.643.643 0 0 0-.172.432M62.933 61.666v.863c.12.134.29.222.485.222a.655.655 0 0 0 .657-.653.643.643 0 0 0-.223-.483h-.867a.51.51 0 0 0-.052.051M62.985 67.411h.867a.651.651 0 0 0-.434-.17.651.651 0 0 0-.433.17M65.673 64.996c0 .167.068.316.172.432v-.864a.643.643 0 0 0-.172.432"/>
        <path fill="#48247D" d="M62.933 64.564v.864a.65.65 0 0 0 .485.222.655.655 0 0 0 .657-.654.644.644 0 0 0-.223-.483h-.867a.654.654 0 0 0-.052.051M63.418 70.138a.651.651 0 0 0-.433.172h.867a.651.651 0 0 0-.434-.172M65.844 68.326v-.863a.645.645 0 0 0-.171.431c0 .168.068.316.171.432M62.933 67.463v.863a.65.65 0 0 0 .485.222.655.655 0 0 0 .657-.654.644.644 0 0 0-.223-.483h-.867a.573.573 0 0 0-.052.052"/>
        <path fill="#48247D" d="M63.852 70.31h-.867a.458.458 0 0 0-.052.051v.863c.12.135.29.222.485.222.071 0 .136-.019.2-.04l.302-.345.133-.158c.006-.037.022-.071.022-.11a.642.642 0 0 0-.223-.483M60.507 49.85a.649.649 0 0 0-.434.172h.868a.649.649 0 0 0-.434-.172M62.762 47.606c0 .167.067.316.172.432v-.864a.643.643 0 0 0-.172.432M60.507 52.749a.649.649 0 0 0-.434.171h.868a.649.649 0 0 0-.434-.171M62.762 50.504c0 .168.067.317.172.432v-.863a.643.643 0 0 0-.172.431"/>
        <path fill="#48247D" d="M60.507 51.158a.655.655 0 0 0 .657-.654.645.645 0 0 0-.223-.483h-.868a.654.654 0 0 0-.052.052v.863c.121.134.29.222.486.222M60.073 55.818h.868a.652.652 0 0 0-.434-.171.651.651 0 0 0-.434.17M62.762 53.403c0 .167.067.315.172.431v-.863a.643.643 0 0 0-.172.432M60.507 54.056a.655.655 0 0 0 .657-.653.644.644 0 0 0-.223-.483h-.868a.51.51 0 0 0-.052.051v.863c.121.135.29.222.486.222M60.507 58.545a.649.649 0 0 0-.434.172h.868a.649.649 0 0 0-.434-.172M62.762 56.301c0 .167.067.316.172.432v-.864a.643.643 0 0 0-.172.432M60.507 56.955a.655.655 0 0 0 .657-.654.645.645 0 0 0-.223-.483h-.868a.654.654 0 0 0-.052.051v.864a.65.65 0 0 0 .486.222M60.073 61.615h.868a.652.652 0 0 0-.434-.171.651.651 0 0 0-.434.17M62.762 59.2c0 .167.067.316.172.431v-.863a.643.643 0 0 0-.172.431"/>
        <path fill="#48247D" d="M60.507 59.853a.655.655 0 0 0 .657-.654.645.645 0 0 0-.223-.483h-.868a.654.654 0 0 0-.052.052v.863c.121.134.29.222.486.222M60.073 64.513h.868a.652.652 0 0 0-.434-.171.651.651 0 0 0-.434.17M62.762 62.098c0 .167.067.315.172.431v-.863a.643.643 0 0 0-.172.432M60.021 61.666v.863c.121.134.29.222.486.222a.655.655 0 0 0 .657-.653.645.645 0 0 0-.223-.483h-.868a.654.654 0 0 0-.052.051M60.073 67.411h.868a.652.652 0 0 0-.434-.17.651.651 0 0 0-.434.17M62.762 64.996c0 .167.067.316.172.432v-.864a.643.643 0 0 0-.172.432M60.507 65.65a.655.655 0 0 0 .657-.654.645.645 0 0 0-.223-.483h-.868a.654.654 0 0 0-.052.051v.864a.65.65 0 0 0 .486.222M60.073 70.31h.868a.652.652 0 0 0-.434-.171.651.651 0 0 0-.434.17M62.762 67.894c0 .168.067.317.172.432v-.863a.643.643 0 0 0-.172.431"/>
        <path fill="#48247D" d="M60.021 67.463v.863c.121.134.29.222.486.222a.655.655 0 0 0 .657-.654.646.646 0 0 0-.223-.483h-.868c-.018.017-.035.033-.052.052M60.507 73.037a.649.649 0 0 0-.434.171h.868a.649.649 0 0 0-.434-.171M62.933 71.224v-.863a.645.645 0 0 0-.172.432c0 .167.069.316.172.431M60.021 70.361v.863c.121.134.29.222.486.222a.655.655 0 0 0 .657-.653.645.645 0 0 0-.223-.483h-.868a.654.654 0 0 0-.052.051"/>
        <path fill="#48247D" d="M60.021 73.26v.863a.65.65 0 1 0 .92-.915h-.868a.916.916 0 0 0-.052.051M59.85 50.504c0 .168.068.316.172.432v-.863a.643.643 0 0 0-.172.431M57.161 55.818h.868a.651.651 0 0 0-.434-.171.652.652 0 0 0-.434.17M59.85 53.403c0 .167.068.315.172.431v-.863a.643.643 0 0 0-.172.432M57.595 58.545a.649.649 0 0 0-.434.172h.868a.649.649 0 0 0-.434-.172M59.85 56.301c0 .167.068.316.172.432v-.864a.643.643 0 0 0-.172.432M57.595 56.955a.655.655 0 0 0 .657-.654.645.645 0 0 0-.223-.483h-.868a.654.654 0 0 0-.051.051v.864c.12.134.29.222.485.222M57.595 61.444a.648.648 0 0 0-.433.171h.867a.649.649 0 0 0-.434-.171M59.85 59.2a.64.64 0 0 0 .172.43v-.862a.643.643 0 0 0-.172.431"/>
        <path fill="#48247D" d="M57.595 59.853a.655.655 0 0 0 .657-.654.645.645 0 0 0-.223-.483h-.868a.573.573 0 0 0-.051.052v.863c.12.134.29.222.485.222M57.161 64.513h.868a.651.651 0 0 0-.434-.171.652.652 0 0 0-.434.17M59.85 62.098c0 .167.068.315.172.431v-.863a.643.643 0 0 0-.172.432M57.595 62.751a.655.655 0 0 0 .657-.653.644.644 0 0 0-.223-.483h-.867a.463.463 0 0 0-.052.051v.863a.65.65 0 0 0 .485.222M57.162 67.411h.867a.651.651 0 0 0-.434-.17.65.65 0 0 0-.433.17M59.85 64.996c0 .167.068.316.172.432v-.864a.643.643 0 0 0-.172.432"/>
        <path fill="#48247D" d="M57.11 64.564v.864a.652.652 0 0 0 1.142-.432.646.646 0 0 0-.223-.483h-.867a.916.916 0 0 0-.052.051M57.161 70.31h.868a.651.651 0 0 0-.434-.171.652.652 0 0 0-.434.17M59.85 67.894c0 .168.068.316.172.432v-.863a.643.643 0 0 0-.172.431M57.595 68.548a.655.655 0 0 0 .657-.654.645.645 0 0 0-.223-.483h-.867a.514.514 0 0 0-.052.052v.863c.12.134.29.222.485.222M57.162 73.208h.867a.651.651 0 0 0-.434-.171.65.65 0 0 0-.433.17M59.85 70.793c0 .167.068.316.172.431v-.863a.643.643 0 0 0-.172.432"/>
        <path fill="#48247D" d="M57.11 70.361v.863a.65.65 0 0 0 .485.222.655.655 0 0 0 .657-.653.645.645 0 0 0-.223-.483h-.867a.654.654 0 0 0-.052.051M57.595 75.936a.649.649 0 0 0-.434.17h.868a.649.649 0 0 0-.434-.17M59.85 73.691c0 .167.068.316.172.432v-.864a.643.643 0 0 0-.172.432M57.595 74.345a.655.655 0 0 0 .657-.654.645.645 0 0 0-.223-.483h-.867a.579.579 0 0 0-.052.051v.864c.12.134.29.222.485.222"/>
        <path fill="#48247D" d="M57.595 77.243a.655.655 0 0 0 .657-.654.645.645 0 0 0-.223-.483h-.868a.573.573 0 0 0-.051.052v.863c.12.134.29.222.485.222M54.684 58.545a.649.649 0 0 0-.434.172h.867a.649.649 0 0 0-.433-.172M56.938 56.301c0 .167.068.316.172.432v-.864a.643.643 0 0 0-.172.432M54.684 61.444a.649.649 0 0 0-.434.171h.867a.649.649 0 0 0-.433-.171M56.938 59.2c0 .167.068.316.172.431v-.863a.643.643 0 0 0-.172.431"/>
        <path fill="#48247D" d="M54.684 59.853a.655.655 0 0 0 .656-.654.643.643 0 0 0-.223-.483h-.867a.458.458 0 0 0-.051.052v.863a.65.65 0 0 0 .485.222M54.25 64.513h.867a.651.651 0 0 0-.433-.171.651.651 0 0 0-.434.17M56.938 62.098c0 .167.068.315.172.431v-.863a.643.643 0 0 0-.172.432M54.684 62.751a.655.655 0 0 0 .656-.653.642.642 0 0 0-.223-.483h-.867a.417.417 0 0 0-.051.051v.863c.12.135.29.222.485.222M54.25 67.411h.867a.651.651 0 0 0-.433-.17.651.651 0 0 0-.434.17M56.938 64.996c0 .167.068.316.172.432v-.864a.643.643 0 0 0-.172.432M54.684 65.65a.655.655 0 0 0 .656-.654.643.643 0 0 0-.223-.483h-.867a.51.51 0 0 0-.051.051v.864a.65.65 0 0 0 .485.222M54.25 70.31h.867a.651.651 0 0 0-.433-.171.651.651 0 0 0-.434.17M56.938 67.894c0 .168.068.317.172.432v-.863a.643.643 0 0 0-.172.431"/>
        <path fill="#48247D" d="M54.199 67.463v.863a.65.65 0 0 0 .485.222.655.655 0 0 0 .656-.654.644.644 0 0 0-.223-.483h-.867a.573.573 0 0 0-.051.052M54.25 73.208h.867a.651.651 0 0 0-.433-.171.651.651 0 0 0-.434.17M56.938 70.793c0 .167.068.316.172.431v-.863a.643.643 0 0 0-.172.432M54.684 71.446a.655.655 0 0 0 .656-.653.642.642 0 0 0-.223-.483h-.867a.417.417 0 0 0-.051.051v.863c.12.135.29.222.485.222M54.684 75.936a.646.646 0 0 0-.373.129l.036.042h.77a.649.649 0 0 0-.433-.171M56.938 73.691c0 .167.068.316.172.432v-.864a.643.643 0 0 0-.172.432M54.199 73.26v.863a.65.65 0 0 0 .485.222.655.655 0 0 0 .656-.654.644.644 0 0 0-.223-.483h-.867a.654.654 0 0 0-.051.051M56.938 76.59c0 .167.068.316.172.431v-.863a.643.643 0 0 0-.172.431"/>
        <path fill="#48247D" d="M55.117 76.106h-.77c.281.33.552.641.81.933a.647.647 0 0 0 .183-.45.643.643 0 0 0-.223-.483M51.772 61.444a.649.649 0 0 0-.434.171h.868a.649.649 0 0 0-.434-.171M54.027 59.2c0 .167.068.316.172.431v-.863a.643.643 0 0 0-.172.431M51.338 64.513h.868a.652.652 0 0 0-.434-.171.651.651 0 0 0-.434.17M54.027 62.098c0 .167.068.315.172.431v-.863a.643.643 0 0 0-.172.432M51.772 62.751a.655.655 0 0 0 .657-.653.644.644 0 0 0-.223-.483h-.868a.51.51 0 0 0-.051.051v.863c.12.135.29.222.485.222M51.338 67.411h.868a.652.652 0 0 0-.434-.17.651.651 0 0 0-.434.17M54.027 64.996c0 .167.068.316.172.432v-.864a.643.643 0 0 0-.172.432"/>
        <path fill="#48247D" d="M51.287 64.564v.864a.65.65 0 1 0 .919-.915h-.867a.916.916 0 0 0-.052.051M51.338 70.31h.868a.652.652 0 0 0-.434-.171.651.651 0 0 0-.434.17M54.027 67.894c0 .168.068.317.172.432v-.863a.643.643 0 0 0-.172.431M51.772 68.548a.655.655 0 0 0 .657-.654.645.645 0 0 0-.223-.483h-.868a.573.573 0 0 0-.051.052v.863c.12.134.29.222.485.222M51.852 73.053l.122.155h.232a.654.654 0 0 0-.354-.155M54.027 70.793c0 .167.068.316.172.431v-.863a.643.643 0 0 0-.172.432"/>
        <path fill="#48247D" d="M51.287 70.361v.863c.12.134.29.222.485.222a.655.655 0 0 0 .657-.653.645.645 0 0 0-.223-.483h-.867a.654.654 0 0 0-.052.051M54.027 73.691c0 .167.068.316.172.432v-.864a.643.643 0 0 0-.172.432M52.206 73.208h-.232l.44.553c.003-.024.015-.045.015-.07a.645.645 0 0 0-.223-.483M48.86 64.342a.649.649 0 0 0-.433.171h.867a.649.649 0 0 0-.433-.171M51.115 62.098c0 .167.068.315.172.431v-.863a.643.643 0 0 0-.172.432M48.427 67.411h.867a.651.651 0 0 0-.433-.17.65.65 0 0 0-.434.17M51.115 64.996c0 .167.068.316.172.432v-.864a.643.643 0 0 0-.172.432M48.86 65.65a.655.655 0 0 0 .657-.654.645.645 0 0 0-.223-.483h-.867a.654.654 0 0 0-.052.051v.864c.12.134.29.222.486.222M51.115 67.894c0 .168.068.316.172.432v-.863a.643.643 0 0 0-.172.431"/>
        <path fill="#48247D" d="M48.375 67.463v.863a.652.652 0 0 0 1.142-.432.646.646 0 0 0-.223-.483h-.867a.662.662 0 0 0-.052.052M51.115 70.793c0 .167.068.316.172.431v-.863a.643.643 0 0 0-.172.432M48.204 64.996c0 .167.067.316.171.432v-.864a.643.643 0 0 0-.171.432M46.061 65.54l.058.076c.004-.001.009-.001.013-.003l-.07-.074M48.204 67.894c0 .168.067.317.171.432v-.863a.643.643 0 0 0-.171.431"/>
        <path fill="#FFF" d="M39.556 20.068c-.322 0-.648-.094-.933-.288a1.64 1.64 0 0 1-.428-2.287 26.497 26.497 0 0 1 3.326-3.916 26.6 26.6 0 0 1 4.853-3.766 1.656 1.656 0 0 1 2.268.56 1.64 1.64 0 0 1-.562 2.257 23.312 23.312 0 0 0-4.247 3.3 23.203 23.203 0 0 0-2.913 3.426c-.32.465-.838.714-1.364.714"/>
        <path fill="#48247D" d="M49.87 35.663c1.965 1.841 4.336 2.762 7.111 2.762 2.775 0 5.118-.95 7.026-2.85 1.908-1.899 2.861-4.172 2.861-6.82 0-2.648-.953-4.92-2.861-6.82-1.908-1.9-4.25-2.85-7.026-2.85-2.775 0-5.117.95-7.025 2.85-1.909 1.9-2.862 4.172-2.862 6.82 0 2.648.925 4.95 2.775 6.908"/>
        <path fill="#000" d="M46.502 79.728h20.835"/>
        <path fill="#48247D" d="M67.337 81.373H46.501a1.648 1.648 0 0 1-1.652-1.645c0-.908.74-1.645 1.652-1.645h20.836c.913 0 1.653.737 1.653 1.645 0 .909-.74 1.645-1.653 1.645"/>
    </g>
</svg>
